<?xml version="1.0" encoding="utf-8"?>
<!-- Generator: Adobe Illustrator 27.9.0, SVG Export Plug-In . SVG Version: 6.00 Build 0)  -->
<svg version="1.1" id="Calque_1" xmlns="http://www.w3.org/2000/svg" xmlns:xlink="http://www.w3.org/1999/xlink" x="0px" y="0px"
	 viewBox="0 0 626 593" style="enable-background:new 0 0 626 593;" xml:space="preserve">
<style type="text/css">
	.st0{fill:#FFFFFF;}
</style>
<g>
	<path class="st0" d="M572,554c-172.3,0-344.6,0-517,0c0-177.6,0-355.2,0-533c172.3,0,344.6,0,517,0C572,198.6,572,376.3,572,554z
		 M361.5,69.2c-0.3,0.3-0.6,0.7-0.9,1C411.3,184,462.1,297.7,513.4,412.7c0.4-2.2,0.6-2.9,0.6-3.6c0.7-9.3,1.4-18.6,2.1-27.9
		c1.6-20.9,3.2-41.8,4.8-62.7c1.4-18.4,2.7-36.9,4.1-55.3c1.5-20.2,3.2-40.5,4.7-60.7c1.1-14.8,1.9-29.5,3.2-44.3
		c0.9-9.7,1.1-9.6-7.3-13.5c-49.5-22.8-99-45.5-148.4-68.3C372,74,366.7,71.6,361.5,69.2z M262.9,69.8c-1.6,0.4-2.2,0.4-2.6,0.6
		c-53.6,24.1-107.1,48.3-160.8,72.3c-4.5,2-5.6,4.5-5.3,9c2.5,37.4,4.9,74.8,7.3,112.2c2.6,41.4,5.2,82.8,7.8,124.2
		c0.5,7.1,1.1,14.3,1.6,21.4c0.4,0,0.9,0.1,1.3,0.1C162.4,296.6,212.5,183.6,262.9,69.8z M416.9,472.6c-0.5-1.4-0.7-2-0.9-2.6
		c-7.1-18.3-14-36.7-21.3-55c-0.6-1.5-3.5-3.1-5.3-3.1c-52.6-0.6-105.3-1-157.9-1.5c-3.3,0-5,1.1-6.3,4.2
		c-6.4,16.3-13,32.5-19.8,48.6c-1.4,3.3-0.2,4.7,2.5,6.2c30.4,17.6,61.1,34.8,90.9,53.4c11.2,7,19.2,7.4,30.6,0.4
		c27.2-16.7,55.6-31.6,83.4-47.3C414.3,475,415.6,473.6,416.9,472.6z M368.6,339.5c-19.4-48.7-38.4-96.3-57.4-144
		c-0.5,0-1,0.1-1.5,0.1c-19,47.8-38,95.5-57.2,143.8C291.7,339.5,329.6,339.5,368.6,339.5z"/>
	<path d="M361.5,69.2c5.3,2.4,10.5,4.7,15.8,7.1c49.5,22.8,99,45.5,148.4,68.3c8.4,3.9,8.1,3.8,7.3,13.5
		c-1.3,14.7-2.1,29.5-3.2,44.3c-1.5,20.2-3.2,40.5-4.7,60.7c-1.4,18.4-2.7,36.9-4.1,55.3c-1.6,20.9-3.2,41.8-4.8,62.7
		c-0.7,9.3-1.4,18.6-2.1,27.9c-0.1,0.7-0.2,1.5-0.6,3.6C462.1,297.7,411.3,184,360.6,70.3C360.9,69.9,361.2,69.6,361.5,69.2z"/>
	<path d="M262.9,69.8c-50.5,113.8-100.6,226.8-150.7,339.9c-0.4,0-0.9-0.1-1.3-0.1c-0.5-7.1-1.2-14.3-1.6-21.4
		c-2.6-41.4-5.2-82.8-7.8-124.2c-2.4-37.4-4.7-74.8-7.3-112.2c-0.3-4.5,0.8-7,5.3-9c53.7-24,107.2-48.2,160.8-72.3
		C260.8,70.2,261.3,70.1,262.9,69.8z"/>
	<path d="M416.9,472.6c-1.3,1-2.6,2.4-4.2,3.2c-27.9,15.7-56.2,30.6-83.4,47.3c-11.4,7-19.4,6.6-30.6-0.4
		c-29.8-18.6-60.5-35.7-90.9-53.4c-2.7-1.6-3.9-2.9-2.5-6.2c6.8-16.1,13.3-32.3,19.8-48.6c1.3-3.2,3-4.3,6.3-4.2
		c52.6,0.5,105.3,0.9,157.9,1.5c1.8,0,4.7,1.6,5.3,3.1c7.3,18.2,14.3,36.6,21.3,55C416.2,470.6,416.4,471.3,416.9,472.6z"/>
	<path d="M368.6,339.5c-39,0-76.9,0-116.1,0c19.2-48.3,38.2-96.1,57.2-143.8c0.5,0,1-0.1,1.5-0.1
		C330.2,243.1,349.2,290.8,368.6,339.5z"/>
</g>
</svg>
